<svg width="20" height="20" viewBox="0 0 20 20" fill="none" xmlns="http://www.w3.org/2000/svg">
<path d="M8.03756 12.542C7.89025 12.542 7.74295 12.4877 7.62665 12.3714C6.99092 11.7357 6.64204 10.8906 6.64204 9.99904C6.64204 8.14611 8.14609 6.64206 9.99902 6.64206C10.8906 6.64206 11.7357 6.99094 12.3714 7.62667C12.4799 7.73521 12.542 7.88251 12.542 8.03757C12.542 8.19263 12.4799 8.33993 12.3714 8.44847L8.44846 12.3714C8.33216 12.4877 8.18486 12.542 8.03756 12.542ZM9.99902 7.80499C8.78958 7.80499 7.80497 8.7896 7.80497 9.99904C7.80497 10.3867 7.90576 10.7588 8.09183 11.0844L11.0844 8.09184C10.7588 7.90577 10.3867 7.80499 9.99902 7.80499Z" fill="#253017"/>
<path d="M5.03714 15.0461C4.90535 15.0461 4.76579 14.9996 4.65725 14.9066C3.8277 14.2011 3.08343 13.3328 2.4477 12.3249C1.62589 11.0457 1.62589 8.96016 2.4477 7.67319C4.33939 4.71161 7.09165 3.00598 9.99896 3.00598C11.7046 3.00598 13.387 3.5952 14.86 4.70385C15.1158 4.89767 15.1701 5.26206 14.9763 5.5179C14.7825 5.77375 14.4181 5.82802 14.1622 5.63419C12.8908 4.67284 11.4487 4.16891 9.99896 4.16891C7.49479 4.16891 5.09917 5.67296 3.42455 8.30117C2.84309 9.20825 2.84309 10.7898 3.42455 11.6969C4.00602 12.604 4.67276 13.387 5.40928 14.0228C5.64962 14.2321 5.68063 14.5965 5.4713 14.8446C5.36276 14.9764 5.19995 15.0461 5.03714 15.0461Z" fill="#253017"/>
<path d="M9.99913 16.9921C8.968 16.9921 7.96013 16.7828 6.99103 16.3719C6.69642 16.2478 6.55687 15.9067 6.68091 15.6121C6.80496 15.3175 7.14608 15.1779 7.44069 15.302C8.26249 15.6509 9.12306 15.8292 9.99138 15.8292C12.4955 15.8292 14.8912 14.3251 16.5658 11.6969C17.1472 10.7898 17.1472 9.20824 16.5658 8.30116C16.3254 7.92127 16.0618 7.55689 15.7827 7.21576C15.5812 6.96767 15.6199 6.60329 15.868 6.39396C16.1161 6.19239 16.4805 6.2234 16.6898 6.47924C16.9922 6.85138 17.2868 7.25452 17.5504 7.67318C18.3722 8.9524 18.3722 11.0379 17.5504 12.3249C15.6587 15.2865 12.9064 16.9921 9.99913 16.9921Z" fill="#253017"/>
<path d="M10.5341 13.3095C10.2627 13.3095 10.0147 13.1157 9.96038 12.8366C9.89836 12.5187 10.1077 12.2164 10.4256 12.1621C11.2784 12.007 11.9916 11.2938 12.1467 10.441C12.2087 10.1231 12.5111 9.92152 12.8289 9.97579C13.1468 10.0378 13.3561 10.3402 13.2941 10.658C13.046 11.9993 11.9761 13.0614 10.6426 13.3095C10.6039 13.3018 10.5729 13.3095 10.5341 13.3095Z" fill="#253017"/>
<path d="M2.2462 18.3333C2.09889 18.3333 1.95159 18.2791 1.8353 18.1628C1.61046 17.9379 1.61046 17.5658 1.8353 17.341L7.62667 11.5496C7.8515 11.3248 8.22364 11.3248 8.44847 11.5496C8.6733 11.7744 8.6733 12.1466 8.44847 12.3714L2.6571 18.1628C2.5408 18.2791 2.3935 18.3333 2.2462 18.3333Z" fill="#253017"/>
<path d="M11.9607 8.61902C11.8134 8.61902 11.6661 8.56475 11.5498 8.44845C11.325 8.22362 11.325 7.85149 11.5498 7.62665L17.3412 1.83528C17.566 1.61045 17.9382 1.61045 18.163 1.83528C18.3878 2.06011 18.3878 2.43225 18.163 2.65708L12.3716 8.44845C12.2553 8.56475 12.108 8.61902 11.9607 8.61902Z" fill="#253017"/>
</svg>
